<svg width="1440" height="1024" viewBox="0 0 1440 1024" fill="none" xmlns="http://www.w3.org/2000/svg">
<rect width="1440" height="1024" fill="#F5F5F5"/>
<path fill-rule="evenodd" clip-rule="evenodd" d="M1029.75 822.035L1029.73 822.031C1026.67 821.351 1023.73 820.841 1020.9 820.502L1020.88 820.5L1020.86 820.496C1013.18 819.236 1007.76 818.2 1004.62 817.386L1004.61 817.381L1004.59 817.377C1001.42 816.437 998.989 815.166 997.44 813.489L997.428 813.476L997.416 813.462C995.823 811.604 995.114 808.923 995.114 805.597C995.114 802.281 995.762 799.577 997.197 797.621C998.653 795.636 1001.15 794.292 1004.46 793.463C1007.78 792.633 1012.46 792.231 1018.44 792.231C1025.26 792.231 1032.47 792.867 1040.07 794.134L1040.66 794.232L1045.26 807.517H1053.51V785.491C1040.27 783.3 1028.82 782.209 1019.13 782.209C1009.21 782.209 1001.6 783.124 996.258 784.906L996.25 784.909L996.241 784.911C990.901 786.58 987.245 789.152 985.117 792.549C983.071 796.002 982 800.78 982 806.971C982 812.612 982.791 816.894 984.289 819.901C985.877 822.748 988.6 825.075 992.57 826.839C996.582 828.623 1002.61 830.266 1010.72 831.75C1010.72 831.75 1010.72 831.75 1010.72 831.75L1022.38 833.808C1028.44 834.723 1032.73 835.531 1035.2 836.236C1037.86 836.962 1039.95 838.197 1041.37 840.003C1042.84 841.751 1043.49 844.316 1043.49 847.505C1043.49 851.051 1042.78 853.929 1041.23 856.001C1039.75 858.008 1037.06 859.34 1033.43 860.159L1033.42 860.162L1033.4 860.165C1029.76 860.871 1024.35 861.214 1017.24 861.214C1009.98 861.214 1003.28 860.696 997.149 859.654L996.562 859.555L991.62 845.07H983.031V867.958C989.983 869.137 995.918 869.945 1000.84 870.382L1000.85 870.383L1000.86 870.384C1005.98 870.952 1011.26 871.237 1016.72 871.237C1027.45 871.237 1035.63 870.321 1041.33 868.534L1041.33 868.533C1047.15 866.744 1051.02 864.051 1053.14 860.555L1053.14 860.547C1055.42 856.866 1056.6 851.86 1056.6 845.444C1056.6 840.24 1055.92 836.348 1054.64 833.682L1054.63 833.675L1054.63 833.668C1053.38 830.964 1050.96 828.704 1047.21 826.941C1043.44 825.164 1037.64 823.521 1029.76 822.038L1029.75 822.035ZM982.031 868.802V844.07H992.336L997.316 858.668C1003.38 859.699 1010.03 860.214 1017.24 860.214C1024.34 860.214 1029.66 859.871 1033.21 859.184C1036.76 858.382 1039.17 857.123 1040.43 855.405C1041.8 853.573 1042.49 850.94 1042.49 847.505C1042.49 844.413 1041.86 842.123 1040.6 840.635C1039.34 839.031 1037.45 837.887 1034.93 837.2C1032.53 836.513 1028.29 835.711 1022.22 834.795L1010.54 832.734C1002.41 831.246 996.286 829.585 992.164 827.753C988.042 825.921 985.122 823.459 983.405 820.368C981.801 817.162 981 812.697 981 806.971C981 800.674 982.088 795.693 984.263 792.029C986.553 788.365 990.446 785.674 995.942 783.957C1001.44 782.125 1009.17 781.209 1019.13 781.209C1029.09 781.209 1040.88 782.354 1054.51 784.644V808.517H1044.55L1039.91 795.121C1032.35 793.861 1025.2 793.231 1018.44 793.231C1012.49 793.231 1007.91 793.632 1004.7 794.434C1001.5 795.235 999.263 796.495 998.003 798.212C996.744 799.93 996.114 802.392 996.114 805.597C996.114 808.803 996.801 811.208 998.175 812.811C999.549 814.299 1001.78 815.502 1004.87 816.418C1007.96 817.219 1013.35 818.25 1021.02 819.509C1023.88 819.853 1026.86 820.368 1029.95 821.055C1037.85 822.543 1043.75 824.204 1047.64 826.036C1051.53 827.868 1054.17 830.272 1055.54 833.249C1056.91 836.112 1057.6 840.177 1057.6 845.444C1057.6 851.97 1056.4 857.18 1053.99 861.073C1051.7 864.851 1047.58 867.657 1041.63 869.489C1035.79 871.32 1027.49 872.237 1016.72 872.237C1011.23 872.237 1005.9 871.951 1000.75 871.378C995.599 870.92 989.359 870.061 982.031 868.802ZM1117.6 827.41L1153.84 869.832H1173.25V860.386L1160.71 855.233L1129.28 818.994L1156.25 799.071L1167.93 793.403V783.613H1124.82V793.403L1139.07 797.182L1098.54 826.551V747.889H1072.43V757.679L1084.11 762.488V855.233L1072.43 860.386V869.832H1110.22V860.386L1098.54 855.233V841.493L1117.6 827.41ZM1109.22 861.038L1097.54 855.885V840.989L1117.76 826.052L1154.31 868.832H1172.25V861.056L1160.11 856.068L1127.82 818.832L1155.73 798.212L1166.93 792.777V784.613H1125.82V792.634L1141.37 796.755L1097.54 828.51V748.889H1073.43V757.009L1085.11 761.818V855.885L1073.43 861.038V868.832H1109.22V861.038ZM1209.04 749.808L1209.03 749.799C1207.2 747.965 1204.67 747 1201.32 747C1197.98 747 1195.39 747.961 1193.43 749.808C1191.62 751.63 1190.64 754.262 1190.64 757.851C1190.64 761.44 1191.62 764.071 1193.43 765.894C1195.39 767.741 1197.98 768.702 1201.32 768.702C1204.67 768.702 1207.2 767.737 1209.03 765.903L1209.04 765.893L1209.05 765.884C1210.98 764.059 1212 761.431 1212 757.851C1212 754.271 1210.98 751.643 1209.05 749.818L1209.04 749.808ZM1192.73 766.61C1190.67 764.549 1189.64 761.629 1189.64 757.851C1189.64 754.072 1190.67 751.153 1192.73 749.092C1194.91 747.031 1197.77 746 1201.32 746C1204.87 746 1207.68 747.031 1209.74 749.092C1211.91 751.153 1213 754.072 1213 757.851C1213 761.629 1211.91 764.549 1209.74 766.61C1207.68 768.671 1204.87 769.702 1201.32 769.702C1197.77 769.702 1194.91 768.671 1192.73 766.61ZM1208.91 855.885V784.613H1184.8V792.733L1196.48 797.542V855.885L1184.8 861.038V868.832H1220.59V861.038L1208.91 855.885ZM1221.59 860.386V869.832H1183.8V860.386L1195.48 855.233V798.212L1183.8 793.403V783.613H1209.91V855.233L1221.59 860.386ZM1260.57 855.885V748.889H1236.46V757.009L1248.14 761.818V855.885L1236.46 861.038V868.832H1272.25V861.038L1260.57 855.885ZM1273.25 860.386V869.832H1235.46V860.386L1247.14 855.233V762.488L1235.46 757.679V747.889H1261.57V855.233L1273.25 860.386ZM1312.23 855.885V748.889H1288.12V757.009L1299.8 761.818V855.885L1288.12 861.038V868.832H1323.91V861.038L1312.23 855.885ZM1324.91 860.386V869.832H1287.12V860.386L1298.8 855.233V762.488L1287.12 757.679V747.889H1313.23V855.233L1324.91 860.386ZM1386.5 822.035L1386.48 822.031C1383.42 821.351 1380.48 820.841 1377.65 820.502L1377.63 820.5L1377.61 820.496C1369.94 819.236 1364.51 818.2 1361.37 817.386L1361.36 817.381L1361.34 817.377C1358.17 816.437 1355.74 815.166 1354.19 813.489L1354.18 813.476L1354.17 813.462C1352.57 811.604 1351.87 808.923 1351.87 805.597C1351.87 802.281 1352.51 799.577 1353.95 797.621C1355.4 795.636 1357.9 794.292 1361.21 793.463C1364.53 792.633 1369.21 792.231 1375.19 792.231C1382.01 792.231 1389.22 792.867 1396.83 794.134L1397.41 794.232L1402.01 807.517H1410.26V785.491C1397.02 783.3 1385.57 782.209 1375.88 782.209C1365.96 782.209 1358.36 783.124 1353.01 784.906L1353 784.909L1352.99 784.911C1347.65 786.58 1344 789.152 1341.87 792.549C1339.82 796.001 1338.75 800.779 1338.75 806.971C1338.75 812.612 1339.54 816.894 1341.04 819.901C1342.63 822.748 1345.35 825.075 1349.32 826.839C1353.33 828.623 1359.37 830.266 1367.47 831.75C1367.47 831.75 1367.47 831.75 1367.47 831.75L1379.12 833.806C1379.13 833.807 1379.13 833.807 1379.13 833.808C1385.19 834.723 1389.48 835.531 1391.95 836.236C1394.61 836.962 1396.7 838.197 1398.12 840.002C1399.59 841.75 1400.24 844.315 1400.24 847.505C1400.24 851.05 1399.53 853.928 1397.98 856C1396.51 858.007 1393.81 859.34 1390.18 860.159L1390.17 860.162L1390.15 860.165C1386.51 860.871 1381.1 861.214 1373.99 861.214C1366.73 861.214 1360.03 860.696 1353.9 859.654L1353.31 859.555L1348.37 845.07H1339.78V867.958C1346.73 869.137 1352.67 869.945 1357.59 870.382L1357.6 870.383L1357.61 870.384C1362.73 870.952 1368.01 871.237 1373.48 871.237C1384.2 871.237 1392.38 870.321 1398.08 868.534L1398.09 868.533C1403.9 866.744 1407.77 864.051 1409.89 860.555L1409.89 860.547C1412.17 856.866 1413.35 851.86 1413.35 845.444C1413.35 840.24 1412.67 836.348 1411.39 833.682L1411.39 833.675L1411.38 833.668C1410.14 830.964 1407.71 828.704 1403.96 826.941C1400.19 825.164 1394.39 823.521 1386.52 822.038L1386.5 822.035ZM1338.78 868.802V844.07H1349.09L1354.07 858.668C1360.14 859.699 1366.78 860.214 1373.99 860.214C1381.09 860.214 1386.41 859.871 1389.96 859.184C1393.51 858.382 1395.92 857.123 1397.18 855.405C1398.55 853.573 1399.24 850.94 1399.24 847.505C1399.24 844.413 1398.61 842.123 1397.35 840.635C1396.09 839.031 1394.2 837.887 1391.68 837.2C1389.28 836.513 1385.04 835.711 1378.97 834.795L1367.29 832.734C1359.16 831.246 1353.04 829.585 1348.92 827.753C1344.79 825.921 1341.87 823.459 1340.16 820.368C1338.55 817.162 1337.75 812.697 1337.75 806.971C1337.75 800.674 1338.84 795.693 1341.01 792.029C1343.3 788.365 1347.2 785.674 1352.69 783.957C1358.19 782.125 1365.92 781.209 1375.88 781.209C1385.84 781.209 1397.63 782.354 1411.26 784.644V808.517H1401.3L1396.66 795.121C1389.1 793.861 1381.95 793.231 1375.19 793.231C1369.24 793.231 1364.66 793.632 1361.45 794.434C1358.25 795.235 1356.01 796.495 1354.75 798.212C1353.5 799.93 1352.87 802.392 1352.87 805.597C1352.87 808.803 1353.55 811.208 1354.93 812.811C1356.3 814.299 1358.53 815.502 1361.62 816.418C1364.72 817.219 1370.1 818.25 1377.77 819.509C1380.63 819.853 1383.61 820.368 1386.7 821.055C1394.6 822.543 1400.5 824.204 1404.39 826.036C1408.28 827.868 1410.92 830.272 1412.29 833.249C1413.67 836.112 1414.35 840.177 1414.35 845.444C1414.35 851.97 1413.15 857.18 1410.75 861.073C1408.46 864.851 1404.33 867.657 1398.38 869.489C1392.54 871.32 1384.24 872.237 1373.48 872.237C1367.98 872.237 1362.66 871.951 1357.5 871.378C1352.35 870.92 1346.11 870.061 1338.78 868.802Z" fill="#636060" fill-opacity="0.18"/>
<path d="M1029.95 884.055C1037.85 885.543 1043.75 887.204 1047.64 889.036C1051.53 890.868 1054.17 893.272 1055.54 896.249C1056.91 899.112 1057.6 903.177 1057.6 908.444C1057.6 914.97 1056.4 920.18 1053.99 924.073C1051.7 927.851 1047.58 930.657 1041.63 932.489C1035.79 934.32 1027.49 935.237 1016.72 935.237C1011.23 935.237 1005.9 934.951 1000.75 934.378C995.599 933.92 989.359 933.061 982.031 931.802V907.07H992.336L997.316 921.668C1003.38 922.699 1010.03 923.214 1017.24 923.214C1024.34 923.214 1029.66 922.871 1033.21 922.184C1036.76 921.382 1039.17 920.123 1040.43 918.405C1041.8 916.573 1042.49 913.94 1042.49 910.505C1042.49 907.413 1041.86 905.123 1040.6 903.635C1039.34 902.031 1037.45 900.887 1034.93 900.2C1032.53 899.513 1028.29 898.711 1022.22 897.795L1010.54 895.734C1002.41 894.246 996.286 892.585 992.164 890.753C988.042 888.921 985.122 886.459 983.405 883.368C981.801 880.162 981 875.697 981 869.971C981 863.674 982.088 858.693 984.263 855.029C986.553 851.365 990.446 848.674 995.942 846.957C1001.44 845.125 1009.17 844.209 1019.13 844.209C1029.09 844.209 1040.88 845.354 1054.51 847.644V871.517H1044.55L1039.91 858.121C1032.35 856.861 1025.2 856.231 1018.44 856.231C1012.49 856.231 1007.91 856.632 1004.7 857.434C1001.5 858.235 999.263 859.495 998.003 861.212C996.744 862.93 996.114 865.392 996.114 868.597C996.114 871.803 996.801 874.208 998.175 875.811C999.549 877.299 1001.78 878.502 1004.87 879.418C1007.96 880.219 1013.35 881.25 1021.02 882.509C1023.88 882.853 1026.86 883.368 1029.95 884.055ZM1173.25 923.386V932.832H1153.84L1117.6 890.41L1098.54 904.493V918.233L1110.22 923.386V932.832H1072.43V923.386L1084.11 918.233V825.488L1072.43 820.679V810.889H1098.54V889.551L1139.07 860.182L1124.82 856.403V846.613H1167.93V856.403L1156.25 862.071L1129.28 881.994L1160.71 918.233L1173.25 923.386ZM1201.32 809C1204.87 809 1207.68 810.031 1209.74 812.092C1211.91 814.153 1213 817.072 1213 820.851C1213 824.629 1211.91 827.549 1209.74 829.61C1207.68 831.671 1204.87 832.702 1201.32 832.702C1197.77 832.702 1194.91 831.671 1192.73 829.61C1190.67 827.549 1189.64 824.629 1189.64 820.851C1189.64 817.072 1190.67 814.153 1192.73 812.092C1194.91 810.031 1197.77 809 1201.32 809ZM1209.91 918.233L1221.59 923.386V932.832H1183.8V923.386L1195.48 918.233V861.212L1183.8 856.403V846.613H1209.91V918.233ZM1261.57 918.233L1273.25 923.386V932.832H1235.46V923.386L1247.14 918.233V825.488L1235.46 820.679V810.889H1261.57V918.233ZM1313.23 918.233L1324.91 923.386V932.832H1287.12V923.386L1298.8 918.233V825.488L1287.12 820.679V810.889H1313.23V918.233ZM1386.7 884.055C1394.6 885.543 1400.5 887.204 1404.39 889.036C1408.28 890.868 1410.92 893.272 1412.29 896.249C1413.67 899.112 1414.35 903.177 1414.35 908.444C1414.35 914.97 1413.15 920.18 1410.75 924.073C1408.46 927.851 1404.33 930.657 1398.38 932.489C1392.54 934.32 1384.24 935.237 1373.48 935.237C1367.98 935.237 1362.66 934.951 1357.5 934.378C1352.35 933.92 1346.11 933.061 1338.78 931.802V907.07H1349.09L1354.07 921.668C1360.14 922.699 1366.78 923.214 1373.99 923.214C1381.09 923.214 1386.41 922.871 1389.96 922.184C1393.51 921.382 1395.92 920.123 1397.18 918.405C1398.55 916.573 1399.24 913.94 1399.24 910.505C1399.24 907.413 1398.61 905.123 1397.35 903.635C1396.09 902.031 1394.2 900.887 1391.68 900.2C1389.28 899.513 1385.04 898.711 1378.97 897.795L1367.29 895.734C1359.16 894.246 1353.04 892.585 1348.92 890.753C1344.79 888.921 1341.87 886.459 1340.16 883.368C1338.55 880.162 1337.75 875.697 1337.75 869.971C1337.75 863.674 1338.84 858.693 1341.01 855.029C1343.3 851.365 1347.2 848.674 1352.69 846.957C1358.19 845.125 1365.92 844.209 1375.88 844.209C1385.84 844.209 1397.63 845.354 1411.26 847.644V871.517H1401.3L1396.66 858.121C1389.1 856.861 1381.95 856.231 1375.19 856.231C1369.24 856.231 1364.66 856.632 1361.45 857.434C1358.25 858.235 1356.01 859.495 1354.75 861.212C1353.5 862.93 1352.87 865.392 1352.87 868.597C1352.87 871.803 1353.55 874.208 1354.93 875.811C1356.3 877.299 1358.53 878.502 1361.62 879.418C1364.72 880.219 1370.1 881.25 1377.77 882.509C1380.63 882.853 1383.61 883.368 1386.7 884.055Z" fill="#636060" fill-opacity="0.15"/>
</svg>
