<svg width="1440" height="1024" viewBox="0 0 1440 1024" fill="none" xmlns="http://www.w3.org/2000/svg">
<g clip-path="url(#clip0)">
<path d="M1472 -670H-850V1024H1472V-670Z" fill="#5BB9BF"/>
<path d="M357.44 3175.38C2281.05 3175.38 3840.44 1658.52 3840.44 -212.62C3840.44 -2083.76 2281.05 -3600.62 357.44 -3600.62C-1566.17 -3600.62 -3125.56 -2083.76 -3125.56 -212.62C-3125.56 1658.52 -1566.17 3175.38 357.44 3175.38Z" fill="url(#paint0_radial)"/>
<g opacity="0.5">
<path opacity="0.5" d="M301 2041.34C1583.41 2041.34 2623 1030.1 2623 -217.33C2623 -1464.76 1583.41 -2476 301 -2476C-981.405 -2476 -2021 -1464.76 -2021 -217.33C-2021 1030.1 -981.405 2041.34 301 2041.34Z" fill="url(#paint1_radial)"/>
<path opacity="0.5" d="M301 1815.47C1455.16 1815.47 2390.8 905.355 2390.8 -217.33C2390.8 -1340.01 1455.16 -2250.13 301 -2250.13C-853.165 -2250.13 -1788.8 -1340.01 -1788.8 -217.33C-1788.8 905.355 -853.165 1815.47 301 1815.47Z" fill="url(#paint2_radial)"/>
<path opacity="0.5" d="M301 1702.54C1391.04 1702.54 2274.7 842.983 2274.7 -217.33C2274.7 -1277.64 1391.04 -2137.2 301 -2137.2C-789.044 -2137.2 -1672.7 -1277.64 -1672.7 -217.33C-1672.7 842.983 -789.044 1702.54 301 1702.54Z" fill="url(#paint3_radial)"/>
<path opacity="0.5" d="M301 1647.2C1359.63 1647.2 2217.81 812.421 2217.81 -217.33C2217.81 -1247.08 1359.63 -2081.86 301 -2081.86C-757.625 -2081.86 -1615.81 -1247.08 -1615.81 -217.33C-1615.81 812.421 -757.625 1647.2 301 1647.2Z" fill="url(#paint4_radial)"/>
<path opacity="0.5" d="M301 1420.2C1230.74 1420.2 1984.45 687.055 1984.45 -217.33C1984.45 -1121.71 1230.74 -1854.86 301 -1854.86C-628.744 -1854.86 -1382.45 -1121.71 -1382.45 -217.33C-1382.45 687.055 -628.744 1420.2 301 1420.2Z" fill="url(#paint5_radial)"/>
<path opacity="0.5" d="M301 1194.34C1102.5 1194.34 1752.25 562.312 1752.25 -217.33C1752.25 -996.972 1102.5 -1629 301 -1629C-500.503 -1629 -1150.25 -996.972 -1150.25 -217.33C-1150.25 562.312 -500.503 1194.34 301 1194.34Z" fill="url(#paint6_radial)"/>
<path opacity="0.5" d="M301 1109.64C1054.41 1109.64 1665.18 515.533 1665.18 -217.33C1665.18 -950.193 1054.41 -1544.3 301 -1544.3C-452.413 -1544.3 -1063.17 -950.193 -1063.17 -217.33C-1063.17 515.533 -452.413 1109.64 301 1109.64Z" fill="url(#paint7_radial)"/>
<path opacity="0.5" d="M301 799.07C878.082 799.07 1345.9 344.012 1345.9 -217.33C1345.9 -778.672 878.082 -1233.73 301 -1233.73C-276.082 -1233.73 -743.9 -778.672 -743.9 -217.33C-743.9 344.012 -276.082 799.07 301 799.07Z" fill="url(#paint8_radial)"/>
<path opacity="0.5" d="M301 629.67C781.902 629.67 1171.75 250.455 1171.75 -217.33C1171.75 -685.115 781.902 -1064.33 301 -1064.33C-179.902 -1064.33 -569.75 -685.115 -569.75 -217.33C-569.75 250.455 -179.902 629.67 301 629.67Z" fill="url(#paint9_radial)"/>
<path opacity="0.5" d="M301 347.337C621.601 347.337 881.5 94.5269 881.5 -217.33C881.5 -529.187 621.601 -781.997 301 -781.997C-19.6012 -781.997 -279.5 -529.187 -279.5 -217.33C-279.5 94.5269 -19.6012 347.337 301 347.337Z" fill="url(#paint10_radial)"/>
<path opacity="0.5" d="M301 211.817C544.657 211.817 742.18 19.6811 742.18 -217.33C742.18 -454.341 544.657 -646.477 301 -646.477C57.3431 -646.477 -140.18 -454.341 -140.18 -217.33C-140.18 19.6811 57.3431 211.817 301 211.817Z" fill="url(#paint11_radial)"/>
<path opacity="0.5" d="M301 65.0034C461.301 65.0034 591.25 -61.4017 591.25 -217.33C591.25 -373.258 461.301 -499.663 301 -499.663C140.699 -499.663 10.7501 -373.258 10.7501 -217.33C10.7501 -61.4017 140.699 65.0034 301 65.0034Z" fill="url(#paint12_radial)"/>
</g>
<mask id="path-17-inside-1" fill="white">
<path d="M982.178 602.314C974.912 602.314 969.689 600.829 966.51 597.857C963.407 594.886 961.856 589.857 961.856 582.771V552.029H953V545.629L961.856 544.029L965.261 527.457H971.392V544.029L990.806 544.143V552.143L971.392 552.029V582.771C971.392 585.895 971.771 588.257 972.528 589.857C973.284 591.457 974.533 592.562 976.274 593.171C978.015 593.781 980.551 594.086 983.881 594.086C986.454 594.086 989.141 593.819 991.942 593.286V601.286C989.217 601.971 985.962 602.314 982.178 602.314ZM1013.31 519C1015.65 519 1017.51 519.686 1018.87 521.057C1020.31 522.429 1021.03 524.371 1021.03 526.886C1021.03 529.4 1020.31 531.343 1018.87 532.714C1017.51 534.086 1015.65 534.771 1013.31 534.771C1010.96 534.771 1009.07 534.086 1007.63 532.714C1006.27 531.343 1005.59 529.4 1005.59 526.886C1005.59 524.371 1006.27 522.429 1007.63 521.057C1009.07 519.686 1010.96 519 1013.31 519ZM1018.98 591.686L1026.7 595.114V601.4H1001.73V595.114L1009.45 591.686V553.743L1001.73 550.543V544.029H1018.98V591.686ZM1139.87 595.114V601.4H1122.61V563.571C1122.61 559.076 1121.63 555.838 1119.66 553.857C1117.69 551.8 1114.78 550.771 1110.92 550.771C1108.27 550.771 1105.81 551.114 1103.54 551.8C1101.34 552.41 1097.71 553.629 1092.64 555.457V591.686L1100.36 595.114V601.4H1083.1V563.571C1083.1 559.076 1082.12 555.838 1080.15 553.857C1078.18 551.8 1075.27 550.771 1071.41 550.771C1068.84 550.771 1066.41 551.114 1064.14 551.8C1061.95 552.41 1058.28 553.629 1053.13 555.457V591.686L1060.85 595.114V601.4H1035.87V595.114L1043.59 591.686V553.743L1035.87 550.543V544.029H1048.48L1051.43 548.714C1055.89 546.429 1059.91 544.829 1063.46 543.914C1067.02 542.924 1070.69 542.429 1074.48 542.429C1078.26 542.429 1081.4 542.962 1083.9 544.029C1086.47 545.095 1088.59 546.771 1090.26 549.057C1094.8 546.695 1098.88 545.019 1102.52 544.029C1106.23 542.962 1110.05 542.429 1113.98 542.429C1118.53 542.429 1122.12 543.19 1124.77 544.714C1127.42 546.162 1129.31 548.524 1130.45 551.8C1131.58 555 1132.15 559.343 1132.15 564.829V591.686L1139.87 595.114ZM1177 542.429C1184.72 542.429 1190.96 544.867 1195.73 549.743C1200.58 554.543 1203 561.705 1203 571.229V575.8H1158.49C1158.87 580.905 1159.78 584.829 1161.22 587.571C1162.73 590.238 1164.89 592.105 1167.69 593.171C1170.57 594.238 1174.5 594.771 1179.5 594.771C1186.69 594.771 1193.8 593.895 1200.84 592.143V600.371C1197.89 601.133 1194.45 601.743 1190.51 602.2C1186.57 602.733 1182.83 603 1179.27 603C1169.2 603 1161.56 600.714 1156.34 596.143C1151.11 591.571 1148.5 583.762 1148.5 572.714C1148.5 562.429 1151.08 554.81 1156.22 549.857C1161.37 544.905 1168.3 542.429 1177 542.429ZM1176.43 550.657C1170.53 550.657 1166.21 551.991 1163.49 554.657C1160.76 557.324 1159.14 561.667 1158.61 567.686H1192.89C1192.44 562.048 1190.89 557.819 1188.24 555C1185.59 552.105 1181.65 550.657 1176.43 550.657ZM1228.76 591.686L1236.48 595.114V601.4H1211.5V595.114L1219.22 591.686V529.971L1211.5 526.771V520.257H1228.76V591.686ZM1257.22 519C1259.57 519 1261.42 519.686 1262.79 521.057C1264.22 522.429 1264.94 524.371 1264.94 526.886C1264.94 529.4 1264.22 531.343 1262.79 532.714C1261.42 534.086 1259.57 534.771 1257.22 534.771C1254.88 534.771 1252.98 534.086 1251.55 532.714C1250.18 531.343 1249.5 529.4 1249.5 526.886C1249.5 524.371 1250.18 522.429 1251.55 521.057C1252.98 519.686 1254.88 519 1257.22 519ZM1262.9 591.686L1270.62 595.114V601.4H1245.64V595.114L1253.36 591.686V553.743L1245.64 550.543V544.029H1262.9V591.686ZM1345.87 595.114V601.4H1328.61V563.571C1328.61 559.076 1327.51 555.838 1325.32 553.857C1323.2 551.8 1320.06 550.771 1315.9 550.771C1313.25 550.771 1310.64 551.114 1308.06 551.8C1305.56 552.486 1301.89 553.705 1297.05 555.457V591.686L1305.9 595.114V601.4H1279.79V595.114L1287.51 591.686V553.743L1279.79 550.543V544.029H1292.39L1295.35 548.714C1299.58 546.505 1303.6 544.905 1307.38 543.914C1311.17 542.924 1315.03 542.429 1318.96 542.429C1323.73 542.429 1327.51 543.19 1330.31 544.714C1333.11 546.162 1335.12 548.524 1336.33 551.8C1337.54 555 1338.15 559.343 1338.15 564.829V591.686L1345.87 595.114ZM1383 542.429C1390.72 542.429 1396.97 544.867 1401.73 549.743C1406.58 554.543 1409 561.705 1409 571.229V575.8H1364.5C1364.87 580.905 1365.78 584.829 1367.22 587.571C1368.73 590.238 1370.89 592.105 1373.69 593.171C1376.57 594.238 1380.5 594.771 1385.5 594.771C1392.69 594.771 1399.8 593.895 1406.84 592.143V600.371C1403.89 601.133 1400.45 601.743 1396.51 602.2C1392.58 602.733 1388.83 603 1385.27 603C1375.21 603 1367.56 600.714 1362.34 596.143C1357.12 591.571 1354.5 583.762 1354.5 572.714C1354.5 562.429 1357.08 554.81 1362.22 549.857C1367.37 544.905 1374.3 542.429 1383 542.429ZM1382.43 550.657C1376.53 550.657 1372.22 551.991 1369.49 554.657C1366.77 557.324 1365.14 561.667 1364.61 567.686H1398.9C1398.44 562.048 1396.89 557.819 1394.24 555C1391.59 552.105 1387.66 550.657 1382.43 550.657Z"/>
</mask>
<path d="M982.178 602.314C974.912 602.314 969.689 600.829 966.51 597.857C963.407 594.886 961.856 589.857 961.856 582.771V552.029H953V545.629L961.856 544.029L965.261 527.457H971.392V544.029L990.806 544.143V552.143L971.392 552.029V582.771C971.392 585.895 971.771 588.257 972.528 589.857C973.284 591.457 974.533 592.562 976.274 593.171C978.015 593.781 980.551 594.086 983.881 594.086C986.454 594.086 989.141 593.819 991.942 593.286V601.286C989.217 601.971 985.962 602.314 982.178 602.314ZM1013.31 519C1015.65 519 1017.51 519.686 1018.87 521.057C1020.31 522.429 1021.03 524.371 1021.03 526.886C1021.03 529.4 1020.31 531.343 1018.87 532.714C1017.51 534.086 1015.65 534.771 1013.31 534.771C1010.96 534.771 1009.07 534.086 1007.63 532.714C1006.27 531.343 1005.59 529.4 1005.59 526.886C1005.59 524.371 1006.27 522.429 1007.63 521.057C1009.07 519.686 1010.96 519 1013.31 519ZM1018.98 591.686L1026.7 595.114V601.4H1001.73V595.114L1009.45 591.686V553.743L1001.73 550.543V544.029H1018.98V591.686ZM1139.87 595.114V601.4H1122.61V563.571C1122.61 559.076 1121.63 555.838 1119.66 553.857C1117.69 551.8 1114.78 550.771 1110.92 550.771C1108.27 550.771 1105.81 551.114 1103.54 551.8C1101.34 552.41 1097.71 553.629 1092.64 555.457V591.686L1100.36 595.114V601.4H1083.1V563.571C1083.1 559.076 1082.12 555.838 1080.15 553.857C1078.18 551.8 1075.27 550.771 1071.41 550.771C1068.84 550.771 1066.41 551.114 1064.14 551.8C1061.95 552.41 1058.28 553.629 1053.13 555.457V591.686L1060.85 595.114V601.4H1035.87V595.114L1043.59 591.686V553.743L1035.87 550.543V544.029H1048.48L1051.43 548.714C1055.89 546.429 1059.91 544.829 1063.46 543.914C1067.02 542.924 1070.69 542.429 1074.48 542.429C1078.26 542.429 1081.4 542.962 1083.9 544.029C1086.47 545.095 1088.59 546.771 1090.26 549.057C1094.8 546.695 1098.88 545.019 1102.52 544.029C1106.23 542.962 1110.05 542.429 1113.98 542.429C1118.53 542.429 1122.12 543.19 1124.77 544.714C1127.42 546.162 1129.31 548.524 1130.45 551.8C1131.58 555 1132.15 559.343 1132.15 564.829V591.686L1139.87 595.114ZM1177 542.429C1184.72 542.429 1190.96 544.867 1195.73 549.743C1200.58 554.543 1203 561.705 1203 571.229V575.8H1158.49C1158.87 580.905 1159.78 584.829 1161.22 587.571C1162.73 590.238 1164.89 592.105 1167.69 593.171C1170.57 594.238 1174.5 594.771 1179.5 594.771C1186.69 594.771 1193.8 593.895 1200.84 592.143V600.371C1197.89 601.133 1194.45 601.743 1190.51 602.2C1186.57 602.733 1182.83 603 1179.27 603C1169.2 603 1161.56 600.714 1156.34 596.143C1151.11 591.571 1148.5 583.762 1148.5 572.714C1148.5 562.429 1151.08 554.81 1156.22 549.857C1161.37 544.905 1168.3 542.429 1177 542.429ZM1176.43 550.657C1170.53 550.657 1166.21 551.991 1163.49 554.657C1160.76 557.324 1159.14 561.667 1158.61 567.686H1192.89C1192.44 562.048 1190.89 557.819 1188.24 555C1185.59 552.105 1181.65 550.657 1176.43 550.657ZM1228.76 591.686L1236.48 595.114V601.4H1211.5V595.114L1219.22 591.686V529.971L1211.5 526.771V520.257H1228.76V591.686ZM1257.22 519C1259.57 519 1261.42 519.686 1262.79 521.057C1264.22 522.429 1264.94 524.371 1264.94 526.886C1264.94 529.4 1264.22 531.343 1262.79 532.714C1261.42 534.086 1259.57 534.771 1257.22 534.771C1254.88 534.771 1252.98 534.086 1251.55 532.714C1250.18 531.343 1249.5 529.4 1249.5 526.886C1249.5 524.371 1250.18 522.429 1251.55 521.057C1252.98 519.686 1254.88 519 1257.22 519ZM1262.9 591.686L1270.62 595.114V601.4H1245.64V595.114L1253.36 591.686V553.743L1245.64 550.543V544.029H1262.9V591.686ZM1345.87 595.114V601.4H1328.61V563.571C1328.61 559.076 1327.51 555.838 1325.32 553.857C1323.2 551.8 1320.06 550.771 1315.9 550.771C1313.25 550.771 1310.64 551.114 1308.06 551.8C1305.56 552.486 1301.89 553.705 1297.05 555.457V591.686L1305.9 595.114V601.4H1279.79V595.114L1287.51 591.686V553.743L1279.79 550.543V544.029H1292.39L1295.35 548.714C1299.58 546.505 1303.6 544.905 1307.38 543.914C1311.17 542.924 1315.03 542.429 1318.96 542.429C1323.73 542.429 1327.51 543.19 1330.31 544.714C1333.11 546.162 1335.12 548.524 1336.33 551.8C1337.54 555 1338.15 559.343 1338.15 564.829V591.686L1345.87 595.114ZM1383 542.429C1390.72 542.429 1396.97 544.867 1401.73 549.743C1406.58 554.543 1409 561.705 1409 571.229V575.8H1364.5C1364.87 580.905 1365.78 584.829 1367.22 587.571C1368.73 590.238 1370.89 592.105 1373.69 593.171C1376.57 594.238 1380.5 594.771 1385.5 594.771C1392.69 594.771 1399.8 593.895 1406.84 592.143V600.371C1403.89 601.133 1400.45 601.743 1396.51 602.2C1392.58 602.733 1388.83 603 1385.27 603C1375.21 603 1367.56 600.714 1362.34 596.143C1357.12 591.571 1354.5 583.762 1354.5 572.714C1354.5 562.429 1357.08 554.81 1362.22 549.857C1367.37 544.905 1374.3 542.429 1383 542.429ZM1382.43 550.657C1376.53 550.657 1372.22 551.991 1369.49 554.657C1366.77 557.324 1365.14 561.667 1364.61 567.686H1398.9C1398.44 562.048 1396.89 557.819 1394.24 555C1391.59 552.105 1387.66 550.657 1382.43 550.657Z" stroke="#636060" stroke-opacity="0.2" stroke-width="2" mask="url(#path-17-inside-1)"/>
<g style="mix-blend-mode:multiply">
<mask id="path-18-inside-2" fill="white">
<path d="M982.178 643.322C974.912 643.322 969.689 641.854 966.51 638.918C963.407 635.982 961.856 631.014 961.856 624.012V593.635H953V587.312L961.856 585.731L965.261 569.356H971.392V585.731L990.806 585.844V593.748L971.392 593.635V624.012C971.392 627.099 971.771 629.433 972.528 631.014C973.284 632.595 974.533 633.686 976.274 634.288C978.015 634.891 980.551 635.192 983.881 635.192C986.454 635.192 989.141 634.928 991.942 634.401V642.306C989.217 642.984 985.962 643.322 982.178 643.322ZM1013.31 561C1015.65 561 1017.51 561.678 1018.87 563.033C1020.31 564.388 1021.03 566.308 1021.03 568.792C1021.03 571.276 1020.31 573.196 1018.87 574.551C1017.51 575.906 1015.65 576.584 1013.31 576.584C1010.96 576.584 1009.07 575.906 1007.63 574.551C1006.27 573.196 1005.59 571.276 1005.59 568.792C1005.59 566.308 1006.27 564.388 1007.63 563.033C1009.07 561.678 1010.96 561 1013.31 561ZM1018.98 632.82L1026.7 636.208V642.419H1001.73V636.208L1009.45 632.82V595.329L1001.73 592.167V585.731H1018.98V632.82ZM1139.87 636.208V642.419H1122.61V605.041C1122.61 600.599 1121.63 597.4 1119.66 595.442C1117.69 593.41 1114.78 592.393 1110.92 592.393C1108.27 592.393 1105.81 592.732 1103.54 593.41C1101.34 594.012 1097.71 595.216 1092.64 597.023V632.82L1100.36 636.208V642.419H1083.1V605.041C1083.1 600.599 1082.12 597.4 1080.15 595.442C1078.18 593.41 1075.27 592.393 1071.41 592.393C1068.84 592.393 1066.41 592.732 1064.14 593.41C1061.95 594.012 1058.28 595.216 1053.13 597.023V632.82L1060.85 636.208V642.419H1035.87V636.208L1043.59 632.82V595.329L1035.87 592.167V585.731H1048.48L1051.43 590.361C1055.89 588.102 1059.91 586.521 1063.46 585.618C1067.02 584.639 1070.69 584.15 1074.48 584.15C1078.26 584.15 1081.4 584.677 1083.9 585.731C1086.47 586.785 1088.59 588.441 1090.26 590.699C1094.8 588.366 1098.88 586.709 1102.52 585.731C1106.23 584.677 1110.05 584.15 1113.98 584.15C1118.53 584.15 1122.12 584.902 1124.77 586.408C1127.42 587.839 1129.31 590.172 1130.45 593.41C1131.58 596.571 1132.15 600.863 1132.15 606.283V632.82L1139.87 636.208ZM1177 584.15C1184.72 584.15 1190.96 586.559 1195.73 591.377C1200.58 596.12 1203 603.196 1203 612.607V617.124H1158.49C1158.87 622.168 1159.78 626.045 1161.22 628.755C1162.73 631.39 1164.89 633.234 1167.69 634.288C1170.57 635.342 1174.5 635.869 1179.5 635.869C1186.69 635.869 1193.8 635.004 1200.84 633.272V641.403C1197.89 642.156 1194.45 642.758 1190.51 643.21C1186.57 643.737 1182.83 644 1179.27 644C1169.2 644 1161.56 641.741 1156.34 637.224C1151.11 632.707 1148.5 624.991 1148.5 614.075C1148.5 603.912 1151.08 596.383 1156.22 591.49C1161.37 586.596 1168.3 584.15 1177 584.15ZM1176.43 592.28C1170.53 592.28 1166.21 593.598 1163.49 596.233C1160.76 598.868 1159.14 603.159 1158.61 609.106H1192.89C1192.44 603.535 1190.89 599.357 1188.24 596.571C1185.59 593.711 1181.65 592.28 1176.43 592.28ZM1228.76 632.82L1236.48 636.208V642.419H1211.5V636.208L1219.22 632.82V571.841L1211.5 568.679V562.242H1228.76V632.82ZM1257.22 561C1259.57 561 1261.42 561.678 1262.79 563.033C1264.22 564.388 1264.94 566.308 1264.94 568.792C1264.94 571.276 1264.22 573.196 1262.79 574.551C1261.42 575.906 1259.57 576.584 1257.22 576.584C1254.88 576.584 1252.98 575.906 1251.55 574.551C1250.18 573.196 1249.5 571.276 1249.5 568.792C1249.5 566.308 1250.18 564.388 1251.55 563.033C1252.98 561.678 1254.88 561 1257.22 561ZM1262.9 632.82L1270.62 636.208V642.419H1245.64V636.208L1253.36 632.82V595.329L1245.64 592.167V585.731H1262.9V632.82ZM1345.87 636.208V642.419H1328.61V605.041C1328.61 600.599 1327.51 597.4 1325.32 595.442C1323.2 593.41 1320.06 592.393 1315.9 592.393C1313.25 592.393 1310.64 592.732 1308.06 593.41C1305.56 594.087 1301.89 595.292 1297.05 597.023V632.82L1305.9 636.208V642.419H1279.79V636.208L1287.51 632.82V595.329L1279.79 592.167V585.731H1292.39L1295.35 590.361C1299.58 588.177 1303.6 586.596 1307.38 585.618C1311.17 584.639 1315.03 584.15 1318.96 584.15C1323.73 584.15 1327.51 584.902 1330.31 586.408C1333.11 587.839 1335.12 590.172 1336.33 593.41C1337.54 596.571 1338.15 600.863 1338.15 606.283V632.82L1345.87 636.208ZM1383 584.15C1390.72 584.15 1396.97 586.559 1401.73 591.377C1406.58 596.12 1409 603.196 1409 612.607V617.124H1364.5C1364.87 622.168 1365.78 626.045 1367.22 628.755C1368.73 631.39 1370.89 633.234 1373.69 634.288C1376.57 635.342 1380.5 635.869 1385.5 635.869C1392.69 635.869 1399.8 635.004 1406.84 633.272V641.403C1403.89 642.156 1400.45 642.758 1396.51 643.21C1392.58 643.737 1388.83 644 1385.27 644C1375.21 644 1367.56 641.741 1362.34 637.224C1357.12 632.707 1354.5 624.991 1354.5 614.075C1354.5 603.912 1357.08 596.383 1362.22 591.49C1367.37 586.596 1374.3 584.15 1383 584.15ZM1382.43 592.28C1376.53 592.28 1372.22 593.598 1369.49 596.233C1366.77 598.868 1365.14 603.159 1364.61 609.106H1398.9C1398.44 603.535 1396.89 599.357 1394.24 596.571C1391.59 593.711 1387.66 592.28 1382.43 592.28Z"/>
</mask>
<path d="M982.178 643.322C974.912 643.322 969.689 641.854 966.51 638.918C963.407 635.982 961.856 631.014 961.856 624.012V593.635H953V587.312L961.856 585.731L965.261 569.356H971.392V585.731L990.806 585.844V593.748L971.392 593.635V624.012C971.392 627.099 971.771 629.433 972.528 631.014C973.284 632.595 974.533 633.686 976.274 634.288C978.015 634.891 980.551 635.192 983.881 635.192C986.454 635.192 989.141 634.928 991.942 634.401V642.306C989.217 642.984 985.962 643.322 982.178 643.322ZM1013.31 561C1015.65 561 1017.51 561.678 1018.87 563.033C1020.31 564.388 1021.03 566.308 1021.03 568.792C1021.03 571.276 1020.31 573.196 1018.87 574.551C1017.51 575.906 1015.65 576.584 1013.31 576.584C1010.96 576.584 1009.07 575.906 1007.63 574.551C1006.27 573.196 1005.59 571.276 1005.59 568.792C1005.59 566.308 1006.27 564.388 1007.63 563.033C1009.07 561.678 1010.96 561 1013.31 561ZM1018.98 632.82L1026.7 636.208V642.419H1001.73V636.208L1009.45 632.82V595.329L1001.73 592.167V585.731H1018.98V632.82ZM1139.87 636.208V642.419H1122.61V605.041C1122.61 600.599 1121.63 597.4 1119.66 595.442C1117.69 593.41 1114.78 592.393 1110.92 592.393C1108.27 592.393 1105.81 592.732 1103.54 593.41C1101.34 594.012 1097.71 595.216 1092.64 597.023V632.82L1100.36 636.208V642.419H1083.1V605.041C1083.1 600.599 1082.12 597.4 1080.15 595.442C1078.18 593.41 1075.27 592.393 1071.41 592.393C1068.84 592.393 1066.41 592.732 1064.14 593.41C1061.95 594.012 1058.28 595.216 1053.13 597.023V632.82L1060.85 636.208V642.419H1035.87V636.208L1043.59 632.82V595.329L1035.87 592.167V585.731H1048.48L1051.43 590.361C1055.89 588.102 1059.91 586.521 1063.46 585.618C1067.02 584.639 1070.69 584.15 1074.48 584.15C1078.26 584.15 1081.4 584.677 1083.9 585.731C1086.47 586.785 1088.59 588.441 1090.26 590.699C1094.8 588.366 1098.88 586.709 1102.52 585.731C1106.23 584.677 1110.05 584.15 1113.98 584.15C1118.53 584.15 1122.12 584.902 1124.77 586.408C1127.42 587.839 1129.31 590.172 1130.45 593.41C1131.58 596.571 1132.15 600.863 1132.15 606.283V632.82L1139.87 636.208ZM1177 584.15C1184.72 584.15 1190.96 586.559 1195.73 591.377C1200.58 596.12 1203 603.196 1203 612.607V617.124H1158.49C1158.87 622.168 1159.78 626.045 1161.22 628.755C1162.73 631.39 1164.89 633.234 1167.69 634.288C1170.57 635.342 1174.5 635.869 1179.5 635.869C1186.69 635.869 1193.8 635.004 1200.84 633.272V641.403C1197.89 642.156 1194.45 642.758 1190.51 643.21C1186.57 643.737 1182.83 644 1179.27 644C1169.2 644 1161.56 641.741 1156.34 637.224C1151.11 632.707 1148.5 624.991 1148.5 614.075C1148.5 603.912 1151.08 596.383 1156.22 591.49C1161.37 586.596 1168.3 584.15 1177 584.15ZM1176.43 592.28C1170.53 592.28 1166.21 593.598 1163.49 596.233C1160.76 598.868 1159.14 603.159 1158.61 609.106H1192.89C1192.44 603.535 1190.89 599.357 1188.24 596.571C1185.59 593.711 1181.65 592.28 1176.43 592.28ZM1228.76 632.82L1236.48 636.208V642.419H1211.5V636.208L1219.22 632.82V571.841L1211.5 568.679V562.242H1228.76V632.82ZM1257.22 561C1259.57 561 1261.42 561.678 1262.79 563.033C1264.22 564.388 1264.94 566.308 1264.94 568.792C1264.94 571.276 1264.22 573.196 1262.79 574.551C1261.42 575.906 1259.57 576.584 1257.22 576.584C1254.88 576.584 1252.98 575.906 1251.55 574.551C1250.18 573.196 1249.5 571.276 1249.5 568.792C1249.5 566.308 1250.18 564.388 1251.55 563.033C1252.98 561.678 1254.88 561 1257.22 561ZM1262.9 632.82L1270.62 636.208V642.419H1245.64V636.208L1253.36 632.82V595.329L1245.64 592.167V585.731H1262.9V632.82ZM1345.87 636.208V642.419H1328.61V605.041C1328.61 600.599 1327.51 597.4 1325.32 595.442C1323.2 593.41 1320.06 592.393 1315.9 592.393C1313.25 592.393 1310.64 592.732 1308.06 593.41C1305.56 594.087 1301.89 595.292 1297.05 597.023V632.82L1305.9 636.208V642.419H1279.79V636.208L1287.51 632.82V595.329L1279.79 592.167V585.731H1292.39L1295.35 590.361C1299.58 588.177 1303.6 586.596 1307.38 585.618C1311.17 584.639 1315.03 584.15 1318.96 584.15C1323.73 584.15 1327.51 584.902 1330.31 586.408C1333.11 587.839 1335.12 590.172 1336.33 593.41C1337.54 596.571 1338.15 600.863 1338.15 606.283V632.82L1345.87 636.208ZM1383 584.15C1390.72 584.15 1396.97 586.559 1401.73 591.377C1406.58 596.12 1409 603.196 1409 612.607V617.124H1364.5C1364.87 622.168 1365.78 626.045 1367.22 628.755C1368.73 631.39 1370.89 633.234 1373.69 634.288C1376.57 635.342 1380.5 635.869 1385.5 635.869C1392.69 635.869 1399.8 635.004 1406.84 633.272V641.403C1403.89 642.156 1400.45 642.758 1396.51 643.21C1392.58 643.737 1388.83 644 1385.27 644C1375.21 644 1367.56 641.741 1362.34 637.224C1357.12 632.707 1354.5 624.991 1354.5 614.075C1354.5 603.912 1357.08 596.383 1362.22 591.49C1367.37 586.596 1374.3 584.15 1383 584.15ZM1382.43 592.28C1376.53 592.28 1372.22 593.598 1369.49 596.233C1366.77 598.868 1365.14 603.159 1364.61 609.106H1398.9C1398.44 603.535 1396.89 599.357 1394.24 596.571C1391.59 593.711 1387.66 592.28 1382.43 592.28Z" fill="#64B7BC" fill-opacity="0.2"/>
<path d="M982.178 643.322C974.912 643.322 969.689 641.854 966.51 638.918C963.407 635.982 961.856 631.014 961.856 624.012V593.635H953V587.312L961.856 585.731L965.261 569.356H971.392V585.731L990.806 585.844V593.748L971.392 593.635V624.012C971.392 627.099 971.771 629.433 972.528 631.014C973.284 632.595 974.533 633.686 976.274 634.288C978.015 634.891 980.551 635.192 983.881 635.192C986.454 635.192 989.141 634.928 991.942 634.401V642.306C989.217 642.984 985.962 643.322 982.178 643.322ZM1013.31 561C1015.65 561 1017.51 561.678 1018.87 563.033C1020.31 564.388 1021.03 566.308 1021.03 568.792C1021.03 571.276 1020.31 573.196 1018.87 574.551C1017.51 575.906 1015.65 576.584 1013.31 576.584C1010.96 576.584 1009.07 575.906 1007.63 574.551C1006.27 573.196 1005.59 571.276 1005.59 568.792C1005.59 566.308 1006.27 564.388 1007.63 563.033C1009.07 561.678 1010.96 561 1013.31 561ZM1018.98 632.82L1026.7 636.208V642.419H1001.73V636.208L1009.45 632.82V595.329L1001.73 592.167V585.731H1018.98V632.82ZM1139.87 636.208V642.419H1122.61V605.041C1122.61 600.599 1121.63 597.4 1119.66 595.442C1117.69 593.41 1114.78 592.393 1110.92 592.393C1108.27 592.393 1105.81 592.732 1103.54 593.41C1101.34 594.012 1097.71 595.216 1092.64 597.023V632.82L1100.36 636.208V642.419H1083.1V605.041C1083.1 600.599 1082.12 597.4 1080.15 595.442C1078.18 593.41 1075.27 592.393 1071.41 592.393C1068.84 592.393 1066.41 592.732 1064.14 593.41C1061.95 594.012 1058.28 595.216 1053.13 597.023V632.82L1060.85 636.208V642.419H1035.87V636.208L1043.59 632.82V595.329L1035.87 592.167V585.731H1048.48L1051.43 590.361C1055.89 588.102 1059.91 586.521 1063.46 585.618C1067.02 584.639 1070.69 584.15 1074.48 584.15C1078.26 584.15 1081.4 584.677 1083.9 585.731C1086.47 586.785 1088.59 588.441 1090.26 590.699C1094.8 588.366 1098.88 586.709 1102.52 585.731C1106.23 584.677 1110.05 584.15 1113.98 584.15C1118.53 584.15 1122.12 584.902 1124.77 586.408C1127.42 587.839 1129.31 590.172 1130.45 593.41C1131.58 596.571 1132.15 600.863 1132.15 606.283V632.82L1139.87 636.208ZM1177 584.15C1184.72 584.15 1190.96 586.559 1195.73 591.377C1200.58 596.12 1203 603.196 1203 612.607V617.124H1158.49C1158.87 622.168 1159.78 626.045 1161.22 628.755C1162.73 631.39 1164.89 633.234 1167.69 634.288C1170.57 635.342 1174.5 635.869 1179.5 635.869C1186.69 635.869 1193.8 635.004 1200.84 633.272V641.403C1197.89 642.156 1194.45 642.758 1190.51 643.21C1186.57 643.737 1182.83 644 1179.27 644C1169.2 644 1161.56 641.741 1156.34 637.224C1151.11 632.707 1148.5 624.991 1148.5 614.075C1148.5 603.912 1151.08 596.383 1156.22 591.49C1161.37 586.596 1168.3 584.15 1177 584.15ZM1176.43 592.28C1170.53 592.28 1166.21 593.598 1163.49 596.233C1160.76 598.868 1159.14 603.159 1158.61 609.106H1192.89C1192.44 603.535 1190.89 599.357 1188.24 596.571C1185.59 593.711 1181.65 592.28 1176.43 592.28ZM1228.76 632.82L1236.48 636.208V642.419H1211.5V636.208L1219.22 632.82V571.841L1211.5 568.679V562.242H1228.76V632.82ZM1257.22 561C1259.57 561 1261.42 561.678 1262.79 563.033C1264.22 564.388 1264.94 566.308 1264.94 568.792C1264.94 571.276 1264.22 573.196 1262.79 574.551C1261.42 575.906 1259.57 576.584 1257.22 576.584C1254.88 576.584 1252.98 575.906 1251.55 574.551C1250.18 573.196 1249.5 571.276 1249.5 568.792C1249.5 566.308 1250.18 564.388 1251.55 563.033C1252.98 561.678 1254.88 561 1257.22 561ZM1262.9 632.82L1270.62 636.208V642.419H1245.64V636.208L1253.36 632.82V595.329L1245.64 592.167V585.731H1262.9V632.82ZM1345.87 636.208V642.419H1328.61V605.041C1328.61 600.599 1327.51 597.4 1325.32 595.442C1323.2 593.41 1320.06 592.393 1315.9 592.393C1313.25 592.393 1310.64 592.732 1308.06 593.41C1305.56 594.087 1301.89 595.292 1297.05 597.023V632.82L1305.9 636.208V642.419H1279.79V636.208L1287.51 632.82V595.329L1279.79 592.167V585.731H1292.39L1295.35 590.361C1299.58 588.177 1303.6 586.596 1307.38 585.618C1311.17 584.639 1315.03 584.15 1318.96 584.15C1323.73 584.15 1327.51 584.902 1330.31 586.408C1333.11 587.839 1335.12 590.172 1336.33 593.41C1337.54 596.571 1338.15 600.863 1338.15 606.283V632.82L1345.87 636.208ZM1383 584.15C1390.72 584.15 1396.97 586.559 1401.73 591.377C1406.58 596.12 1409 603.196 1409 612.607V617.124H1364.5C1364.87 622.168 1365.78 626.045 1367.22 628.755C1368.73 631.39 1370.89 633.234 1373.69 634.288C1376.57 635.342 1380.5 635.869 1385.5 635.869C1392.69 635.869 1399.8 635.004 1406.84 633.272V641.403C1403.89 642.156 1400.45 642.758 1396.51 643.21C1392.58 643.737 1388.83 644 1385.27 644C1375.21 644 1367.56 641.741 1362.34 637.224C1357.12 632.707 1354.5 624.991 1354.5 614.075C1354.5 603.912 1357.08 596.383 1362.22 591.49C1367.37 586.596 1374.3 584.15 1383 584.15ZM1382.43 592.28C1376.53 592.28 1372.22 593.598 1369.49 596.233C1366.77 598.868 1365.14 603.159 1364.61 609.106H1398.9C1398.44 603.535 1396.89 599.357 1394.24 596.571C1391.59 593.711 1387.66 592.28 1382.43 592.28Z" stroke="#636060" stroke-opacity="0.08" stroke-width="2" mask="url(#path-18-inside-2)"/>
</g>
</g>
<rect x="0.5" y="0.5" width="1439" height="1023" stroke="#636060" stroke-opacity="0.2"/>
<defs>
<radialGradient id="paint0_radial" cx="0" cy="0" r="1" gradientUnits="userSpaceOnUse" gradientTransform="translate(357.44 -212.62) scale(3483 3388)">
<stop stop-color="#80C9CD"/>
<stop offset="1" stop-color="#5BB9BF"/>
</radialGradient>
<radialGradient id="paint1_radial" cx="0" cy="0" r="1" gradientUnits="userSpaceOnUse" gradientTransform="translate(301 -217.33) scale(2322 2258.67)">
<stop stop-color="#102627"/>
<stop offset="0.817708" stop-color="#5BB9BF"/>
</radialGradient>
<radialGradient id="paint2_radial" cx="0" cy="0" r="1" gradientUnits="userSpaceOnUse" gradientTransform="translate(301 -217.33) scale(2089.8 2032.8)">
<stop stop-color="#102627"/>
<stop offset="0.817708" stop-color="#5BB9BF"/>
</radialGradient>
<radialGradient id="paint3_radial" cx="0" cy="0" r="1" gradientUnits="userSpaceOnUse" gradientTransform="translate(301 -217.33) scale(1973.7 1919.87)">
<stop stop-color="#102627"/>
<stop offset="0.817708" stop-color="#5BB9BF"/>
</radialGradient>
<radialGradient id="paint4_radial" cx="0" cy="0" r="1" gradientUnits="userSpaceOnUse" gradientTransform="translate(301 -217.33) scale(1916.81 1864.53)">
<stop stop-color="#102627"/>
<stop offset="0.817708" stop-color="#5BB9BF"/>
</radialGradient>
<radialGradient id="paint5_radial" cx="0" cy="0" r="1" gradientUnits="userSpaceOnUse" gradientTransform="translate(301 -217.33) scale(1683.45 1637.53)">
<stop stop-color="#102627"/>
<stop offset="0.817708" stop-color="#5BB9BF"/>
</radialGradient>
<radialGradient id="paint6_radial" cx="0" cy="0" r="1" gradientUnits="userSpaceOnUse" gradientTransform="translate(301 -217.33) scale(1451.25 1411.67)">
<stop stop-color="#102627"/>
<stop offset="0.817708" stop-color="#5BB9BF"/>
</radialGradient>
<radialGradient id="paint7_radial" cx="0" cy="0" r="1" gradientUnits="userSpaceOnUse" gradientTransform="translate(301 -217.33) scale(1364.18 1326.97)">
<stop stop-color="#102627"/>
<stop offset="0.817708" stop-color="#5BB9BF"/>
</radialGradient>
<radialGradient id="paint8_radial" cx="0" cy="0" r="1" gradientUnits="userSpaceOnUse" gradientTransform="translate(301 -217.33) scale(1044.9 1016.4)">
<stop stop-color="#102627"/>
<stop offset="0.817708" stop-color="#5BB9BF"/>
</radialGradient>
<radialGradient id="paint9_radial" cx="0" cy="0" r="1" gradientUnits="userSpaceOnUse" gradientTransform="translate(301 -217.33) scale(870.75 847)">
<stop stop-color="#102627"/>
<stop offset="0.817708" stop-color="#5BB9BF"/>
</radialGradient>
<radialGradient id="paint10_radial" cx="0" cy="0" r="1" gradientUnits="userSpaceOnUse" gradientTransform="translate(301 -217.33) scale(580.5 564.667)">
<stop stop-color="#102627"/>
<stop offset="0.817708" stop-color="#5BB9BF"/>
</radialGradient>
<radialGradient id="paint11_radial" cx="0" cy="0" r="1" gradientUnits="userSpaceOnUse" gradientTransform="translate(301 -217.33) scale(441.18 429.147)">
<stop stop-color="#102627"/>
<stop offset="0.817708" stop-color="#5BB9BF"/>
</radialGradient>
<radialGradient id="paint12_radial" cx="0" cy="0" r="1" gradientUnits="userSpaceOnUse" gradientTransform="translate(301 -217.33) scale(290.25 282.333)">
<stop stop-color="#102627"/>
<stop offset="0.817708" stop-color="#5BB9BF"/>
</radialGradient>
<clipPath id="clip0">
<rect width="1440" height="1024" fill="white"/>
</clipPath>
</defs>
</svg>
