<svg width="1440" height="1024" viewBox="0 0 1440 1024" fill="none" xmlns="http://www.w3.org/2000/svg">
<g clip-path="url(#clip0)">
<rect width="1440" height="1024" fill="white"/>
<g clip-path="url(#clip1)">
<path d="M138.44 127.4V134H120.2V94.28C120.2 89.56 119.16 86.16 117.08 84.08C115 81.92 111.92 80.84 107.84 80.84C105.04 80.84 102.44 81.2 100.04 81.92C97.72 82.56 93.88 83.84 88.52 85.76V123.8L96.68 127.4V134H78.44V94.28C78.44 89.56 77.4 86.16 75.32 84.08C73.24 81.92 70.16 80.84 66.08 80.84C63.36 80.84 60.8 81.2 58.4 81.92C56.08 82.56 52.2 83.84 46.76 85.76V123.8L54.92 127.4V134H28.52V127.4L36.68 123.8V83.96L28.52 80.6V73.76H41.84L44.96 78.68C49.68 76.28 53.92 74.6 57.68 73.64C61.44 72.6 65.32 72.08 69.32 72.08C73.32 72.08 76.64 72.64 79.28 73.76C82 74.88 84.24 76.64 86 79.04C90.8 76.56 95.12 74.8 98.96 73.76C102.88 72.64 106.92 72.08 111.08 72.08C115.88 72.08 119.68 72.88 122.48 74.48C125.28 76 127.28 78.48 128.48 81.92C129.68 85.28 130.28 89.84 130.28 95.6V123.8L138.44 127.4ZM216.717 73.76V80.48L206.877 83.84L180.357 143C178.357 147.56 176.117 151.08 173.637 153.56C171.237 156.12 168.157 157.96 164.397 159.08C160.717 160.28 155.917 160.88 149.997 160.88H147.597V152C150.637 152.24 153.557 152.36 156.357 152.36C159.397 152.36 161.797 151.96 163.557 151.16C165.397 150.36 167.197 148.68 168.957 146.12C170.797 143.64 172.997 139.64 175.557 134.12L152.517 83.84L142.677 80.48V73.76H173.277V80.48L163.557 83.72L180.837 122.48L197.877 83.72L188.157 80.48V73.76H216.717ZM347.84 73.76V80.6L340.88 83.96L324.2 134H311.96L298.52 91.64L285.08 134H272.84L256.16 83.96L249.2 80.6V73.76H274.76V80.6L266.6 83.96L279.56 123.56L294.08 77.84H304.52L319.04 123.32L332.12 83.96L323.96 80.6V73.76H347.84ZM382.072 72.08C391.272 72.08 398.632 74.64 404.152 79.76C409.752 84.8 412.552 92.84 412.552 103.88C412.552 114.92 409.752 123 404.152 128.12C398.632 133.16 391.272 135.68 382.072 135.68C372.872 135.68 365.472 133.16 359.872 128.12C354.352 123 351.592 114.92 351.592 103.88C351.592 92.84 354.352 84.8 359.872 79.76C365.472 74.64 372.872 72.08 382.072 72.08ZM382.072 80.72C377.272 80.72 373.432 81.4 370.552 82.76C367.752 84.12 365.632 86.48 364.192 89.84C362.832 93.2 362.152 97.88 362.152 103.88C362.152 109.88 362.832 114.56 364.192 117.92C365.632 121.28 367.752 123.64 370.552 125C373.432 126.36 377.272 127.04 382.072 127.04C386.872 127.04 390.672 126.36 393.472 125C396.352 123.64 398.472 121.28 399.832 117.92C401.272 114.56 401.992 109.88 401.992 103.88C401.992 97.88 401.272 93.2 399.832 89.84C398.472 86.48 396.352 84.12 393.472 82.76C390.672 81.4 386.872 80.72 382.072 80.72ZM464.853 71.84C468.373 71.84 470.933 72.68 472.533 74.36C474.133 76.04 474.933 78.64 474.933 82.16C474.933 88.64 471.253 91.88 463.893 91.88L459.093 81.08C455.973 81.88 452.813 83 449.613 84.44C446.493 85.8 443.693 87.28 441.213 88.88V123.8L452.373 127.4V134H422.973V127.4L431.133 123.8V83.96L422.973 80.6V73.76H436.293L440.853 80.96C444.853 78 448.933 75.76 453.093 74.24C457.253 72.64 461.173 71.84 464.853 71.84ZM552.71 127.4V134H539.15L513.83 104.36L500.51 114.2V123.8L508.67 127.4V134H482.27V127.4L490.43 123.8V59L482.27 55.64V48.8H500.51V103.76L528.83 83.24L518.87 80.6V73.76H548.99V80.6L540.83 84.56L521.99 98.48L543.95 123.8L552.71 127.4Z" fill="#F5F5F5"/>
</g>
</g>
<defs>
<clipPath id="clip0">
<rect width="1440" height="1024" fill="white"/>
</clipPath>
<clipPath id="clip1">
<rect width="2322" height="1694" fill="white" transform="translate(-850 -670)"/>
</clipPath>
</defs>
</svg>
